<svg width="45" height="45" viewBox="0 0 45 45" fill="none" xmlns="http://www.w3.org/2000/svg">
<path d="M29.0625 30C31.6513 30 33.75 27.9013 33.75 25.3125C33.75 22.7237 31.6513 20.625 29.0625 20.625C26.4737 20.625 24.375 22.7237 24.375 25.3125C24.375 27.9013 26.4737 30 29.0625 30Z" fill="#88A47C"/>
<path d="M22.5 25.3125C22.5 23.7844 23.2425 22.44 24.375 21.585C23.5684 20.9647 22.58 20.6274 21.5625 20.625C20.3193 20.625 19.127 21.1189 18.2479 21.9979C17.3689 22.877 16.875 24.0693 16.875 25.3125C16.875 26.5557 17.3689 27.748 18.2479 28.6271C19.127 29.5061 20.3193 30 21.5625 30C22.58 29.9976 23.5684 29.6603 24.375 29.04C23.7944 28.6071 23.3226 28.0448 22.9971 27.3978C22.6717 26.7507 22.5015 26.0368 22.5 25.3125Z" fill="#88A47C"/>
<path d="M37.5 7.5H7.5C5.43187 7.5 3.75 9.18187 3.75 11.25V33.75C3.75 35.8181 5.43187 37.5 7.5 37.5H37.5C39.5681 37.5 41.25 35.8181 41.25 33.75V11.25C41.25 9.18187 39.5681 7.5 37.5 7.5ZM7.5 33.75V11.25H37.5L37.5037 33.75H7.5Z" fill="#88A47C"/>
</svg>
