<svg width="100" height="100" viewBox="0 0 100 100" fill="none" xmlns="http://www.w3.org/2000/svg">
<rect width="100" height="100" rx="50" fill="#88A47C" fill-opacity="0.4"/>
<path d="M71.8277 50.2584L51.2027 27.3418C50.3342 26.3747 48.6658 26.3747 47.7973 27.3418L27.1723 50.2584C26.8754 50.5875 26.6806 50.9957 26.6114 51.4335C26.5422 51.8713 26.6018 52.3197 26.7827 52.7243C27.1494 53.5516 27.9698 54.0832 28.875 54.0832H33.4583V70.1249C33.4583 70.7327 33.6998 71.3156 34.1296 71.7453C34.5593 72.1751 35.1422 72.4166 35.75 72.4166H42.625C43.2328 72.4166 43.8157 72.1751 44.2455 71.7453C44.6752 71.3156 44.9167 70.7327 44.9167 70.1249V60.9582H54.0833V70.1249C54.0833 70.7327 54.3248 71.3156 54.7546 71.7453C55.1843 72.1751 55.7672 72.4166 56.375 72.4166H63.25C63.8578 72.4166 64.4407 72.1751 64.8705 71.7453C65.3002 71.3156 65.5417 70.7327 65.5417 70.1249V54.0832H70.125C70.5688 54.0851 71.0036 53.9578 71.3763 53.7169C71.7491 53.476 72.0436 53.1318 72.2241 52.7263C72.4046 52.3209 72.4633 51.8716 72.3929 51.4334C72.3225 50.9952 72.1261 50.587 71.8277 50.2584Z" fill="#88A47C"/>
</svg>
