<svg width="55" height="55" viewBox="0 0 55 55" fill="none" xmlns="http://www.w3.org/2000/svg">
<path d="M8.45853 14.419C11.6737 10.9334 16.5389 9.1665 22.9167 9.1665H25.2083V15.6267L23.3658 15.9957C20.2262 16.6236 18.0423 17.8588 16.8735 19.6715C16.2637 20.6481 15.9178 21.7662 15.8698 22.9165H22.9167C23.5244 22.9165 24.1073 23.1579 24.5371 23.5877C24.9669 24.0175 25.2083 24.6004 25.2083 25.2082V41.2498C25.2083 43.7775 23.1527 45.8332 20.625 45.8332H6.87498C6.2672 45.8332 5.6843 45.5917 5.25453 45.162C4.82476 44.7322 4.58332 44.1493 4.58332 43.5415V32.0832L4.59019 25.3938C4.56957 25.1394 4.13415 19.1123 8.45853 14.419ZM45.8333 45.8332H32.0833C31.4755 45.8332 30.8926 45.5917 30.4629 45.162C30.0331 44.7322 29.7917 44.1493 29.7917 43.5415V32.0832L29.7985 25.3938C29.7779 25.1394 29.3425 19.1123 33.6669 14.419C36.8821 10.9334 41.7473 9.1665 48.125 9.1665H50.4167V15.6267L48.5742 15.9957C45.4346 16.6236 43.2506 17.8588 42.0819 19.6715C41.472 20.6481 41.1262 21.7662 41.0781 22.9165H48.125C48.7328 22.9165 49.3157 23.1579 49.7454 23.5877C50.1752 24.0175 50.4167 24.6004 50.4167 25.2082V41.2498C50.4167 43.7775 48.361 45.8332 45.8333 45.8332Z" fill="white"/>
</svg>
