<svg width="740" height="540" viewBox="0 0 740 540" fill="none" xmlns="http://www.w3.org/2000/svg">
<path d="M683.793 81.7497H423.623V76.0474H305.652V81.7497H44.4101C39.7423 81.7497 35.2656 83.7217 31.965 87.2318C28.6643 90.7419 26.8101 95.5026 26.8101 100.467V479.327C26.8101 484.291 28.6643 489.052 31.965 492.562C35.2656 496.072 39.7423 498.044 44.4101 498.044H683.793C688.461 498.044 692.938 496.072 696.238 492.562C699.539 489.052 701.393 484.291 701.393 479.327V100.465C701.393 95.5009 699.538 90.7407 696.237 87.231C692.937 83.7214 688.461 81.7497 683.793 81.7497Z" fill="#3F3D56"/>
<path d="M677.797 114.825H50.406V491.2H677.797V114.825Z" fill="#E6E6E6"/>
<path d="M651.404 134.729H77.0129V460.057H651.404V134.729Z" fill="white"/>
<path d="M719.007 484.356H657.778V479.664C657.778 479.418 657.686 479.181 657.522 479.006C657.358 478.832 657.135 478.734 656.903 478.734H635.91C635.678 478.734 635.455 478.832 635.291 479.006C635.127 479.181 635.035 479.418 635.035 479.664V484.356H621.915V479.664C621.915 479.418 621.823 479.181 621.659 479.006C621.495 478.832 621.272 478.734 621.04 478.734H600.047C599.815 478.734 599.592 478.832 599.428 479.006C599.264 479.181 599.172 479.418 599.172 479.664V484.356H586.052V479.664C586.052 479.418 585.96 479.181 585.796 479.006C585.632 478.832 585.409 478.734 585.177 478.734H564.184C563.952 478.734 563.729 478.832 563.565 479.006C563.401 479.181 563.309 479.418 563.309 479.664V484.356H550.189V479.664C550.189 479.418 550.097 479.181 549.933 479.006C549.769 478.832 549.546 478.734 549.314 478.734H528.322C528.09 478.734 527.867 478.832 527.703 479.006C527.539 479.181 527.447 479.418 527.447 479.664V484.356H514.326V479.664C514.326 479.418 514.234 479.181 514.07 479.006C513.906 478.832 513.683 478.734 513.451 478.734H492.459C492.227 478.734 492.004 478.832 491.84 479.006C491.676 479.181 491.584 479.418 491.584 479.664V484.356H478.463V479.664C478.463 479.418 478.371 479.181 478.207 479.006C478.043 478.832 477.82 478.734 477.588 478.734H456.6C456.368 478.734 456.145 478.832 455.981 479.006C455.817 479.181 455.725 479.418 455.725 479.664V484.356H442.6V479.664C442.6 479.418 442.508 479.181 442.344 479.006C442.18 478.832 441.957 478.734 441.725 478.734H277.281C277.049 478.734 276.826 478.832 276.662 479.006C276.498 479.181 276.406 479.418 276.406 479.664V484.356H263.286V479.664C263.286 479.418 263.194 479.181 263.03 479.006C262.866 478.832 262.643 478.734 262.411 478.734H241.418C241.186 478.734 240.963 478.832 240.799 479.006C240.635 479.181 240.543 479.418 240.543 479.664V484.356H227.423V479.664C227.423 479.418 227.331 479.181 227.167 479.006C227.003 478.832 226.78 478.734 226.548 478.734H205.556C205.324 478.734 205.101 478.832 204.937 479.006C204.773 479.181 204.681 479.418 204.681 479.664V484.356H191.56V479.664C191.56 479.418 191.468 479.181 191.304 479.006C191.14 478.832 190.917 478.734 190.685 478.734H169.693C169.461 478.734 169.238 478.832 169.074 479.006C168.91 479.181 168.818 479.418 168.818 479.664V484.356H155.7V479.664C155.7 479.418 155.608 479.181 155.444 479.006C155.28 478.832 155.057 478.734 154.825 478.734H133.83C133.598 478.734 133.375 478.832 133.211 479.006C133.047 479.181 132.955 479.418 132.955 479.664V484.356H119.835V479.664C119.835 479.418 119.743 479.181 119.579 479.006C119.415 478.832 119.192 478.734 118.96 478.734H97.967C97.7349 478.734 97.5124 478.832 97.3483 479.006C97.1842 479.181 97.092 479.418 97.092 479.664V484.356H83.972V479.664C83.972 479.418 83.8798 479.181 83.7157 479.006C83.5516 478.832 83.329 478.734 83.097 478.734H62.1C61.8679 478.734 61.6454 478.832 61.4813 479.006C61.3172 479.181 61.225 479.418 61.225 479.664V484.356H20.993C15.4253 484.356 10.0857 486.709 6.14871 490.895C2.21176 495.082 0 500.761 0 506.682V516.776C0 522.697 2.21176 528.376 6.14871 532.563C10.0857 536.75 15.4253 539.102 20.993 539.102H719.007C724.575 539.102 729.914 536.75 733.851 532.563C737.788 528.377 740 522.698 740 516.777V506.683C740 500.762 737.788 495.083 733.851 490.897C729.914 486.71 724.575 484.358 719.007 484.358V484.356Z" fill="#3F3D56"/>
<path d="M491.209 157.546H237.209V441.492H491.209V157.546Z" fill="#E6E6E6"/>
<path d="M394.856 237.926C413.5 237.926 428.613 221.854 428.613 202.027C428.613 182.2 413.5 166.127 394.856 166.127C376.213 166.127 361.099 182.2 361.099 202.027C361.099 221.854 376.213 237.926 394.856 237.926Z" fill="#FFB9B9"/>
<path d="M317.186 442.077L338.986 296.13C340.145 288.37 342.845 280.962 346.906 274.398C350.966 267.834 356.295 262.266 362.537 258.062C368.778 253.859 375.79 251.117 383.106 250.019C390.422 248.922 397.873 249.494 404.965 251.697C417.364 255.511 427.981 264.104 434.742 275.797C441.503 287.49 443.921 301.443 441.526 314.931L418.726 445.269L317.186 442.077Z" fill="#00ADB5"/>
<path d="M404.176 468.19C405.862 467.006 407.283 465.444 408.34 463.612C409.397 461.781 410.063 459.725 410.292 457.59C410.52 455.455 410.306 453.293 409.664 451.256C409.022 449.218 407.968 447.355 406.576 445.798L429.111 399.389L403.733 402.269L386.224 445.899C383.929 448.562 382.63 452.026 382.572 455.638C382.515 459.25 383.703 462.759 385.913 465.503C388.122 468.247 391.2 470.035 394.564 470.531C397.929 471.026 401.348 470.194 404.175 468.191L404.176 468.19Z" fill="#FFB9B9"/>
<path d="M409.002 437.613C407.755 437.425 406.592 436.839 405.667 435.93L397.045 427.458C396.114 426.538 395.471 425.336 395.202 424.015C394.934 422.694 395.054 421.317 395.545 420.071L412.777 376.633L410.332 290.806C411.046 285.238 413.811 280.2 418.018 276.8C422.226 273.4 427.531 271.916 432.767 272.676C438.002 273.435 442.74 276.376 445.937 280.85C449.134 285.324 450.529 290.966 449.815 296.534L453.995 350.487C455.266 366.862 450.9 383.17 441.711 396.378L414.838 435.012C414.321 435.755 413.663 436.373 412.906 436.828C412.15 437.282 411.312 437.562 410.447 437.649C409.966 437.697 409.481 437.685 409.002 437.613Z" fill="#00ADB5"/>
<path d="M200.459 182.468C200.827 184.581 201.626 186.582 202.799 188.331C203.973 190.08 205.493 191.534 207.253 192.59C209.012 193.647 210.968 194.28 212.982 194.446C214.996 194.612 217.021 194.306 218.912 193.55L250.312 233.713L257.712 207.737L226.76 173.579C225.348 170.295 222.854 167.675 219.75 166.212C216.646 164.749 213.145 164.545 209.909 165.639C206.673 166.732 203.925 169.048 202.184 172.148C200.444 175.249 199.829 178.919 200.459 182.468Z" fill="#FFB9B9"/>
<path d="M225.056 199.115C225.704 197.967 226.666 197.057 227.813 196.505L238.513 191.366C239.673 190.812 240.964 190.651 242.213 190.903C243.462 191.155 244.607 191.809 245.495 192.777L276.389 226.588L351.661 257.657C353.912 259.077 355.878 260.955 357.447 263.184C359.015 265.413 360.155 267.948 360.802 270.646C361.449 273.343 361.589 276.15 361.216 278.905C360.842 281.66 359.961 284.31 358.624 286.703C357.287 289.096 355.52 291.186 353.423 292.852C351.327 294.519 348.942 295.73 346.405 296.416C343.868 297.102 341.229 297.249 338.638 296.85C336.048 296.451 333.557 295.513 331.307 294.089L282.96 277.146C268.286 272.006 255.866 261.372 248.012 247.223L225.036 205.844C224.595 205.048 224.316 204.162 224.218 203.244C224.119 202.326 224.204 201.397 224.465 200.516C224.611 200.026 224.81 199.556 225.059 199.116L225.056 199.115Z" fill="#00ADB5"/>
<path opacity="0.1" d="M422.237 326.509L420.863 373.281L395.544 420.074L416.685 367.932L422.237 326.509Z" fill="black"/>
<path d="M371.995 184.033C375.477 188.415 381.369 189.651 386.805 190.158C397.844 191.188 413.896 189.52 424.684 186.869C425.454 194.806 423.355 203.363 427.75 209.891C429.811 201.987 431.009 193.857 431.321 185.662C431.454 182.153 431.402 178.511 430.059 175.285C428.716 172.058 425.787 169.32 422.414 169.291C424.92 167.269 427.855 165.935 430.961 165.405L420.281 159.698L423.024 156.703L403.688 155.445L409.288 151.661C400.859 150.43 392.332 150.145 383.847 150.81C379.907 151.119 375.787 151.709 372.595 154.137C369.403 156.565 367.558 161.39 369.54 164.954C367.059 165.388 364.723 166.487 362.753 168.149C360.783 169.812 359.245 171.981 358.284 174.452C356.861 178.289 356.991 182.552 357.43 186.641C358.159 193.18 359.588 199.61 361.69 205.804" fill="#2F2E41"/>
<path d="M516.305 94.0995L208.707 169.621C207.196 169.99 205.61 169.707 204.296 168.833C202.981 167.96 202.046 166.568 201.696 164.962L184.08 83.8175C183.733 82.211 184 80.5238 184.821 79.126C185.642 77.7282 186.951 76.7339 188.461 76.3612L496.059 0.839526C497.57 0.470667 499.156 0.754044 500.471 1.62749C501.785 2.50093 502.72 3.89312 503.07 5.49869L520.686 86.6434C521.033 88.2498 520.766 89.937 519.945 91.3348C519.124 92.7325 517.815 93.7268 516.305 94.0995Z" fill="white"/>
<path d="M516.305 94.0995L208.707 169.621C207.196 169.99 205.61 169.707 204.296 168.833C202.981 167.96 202.046 166.568 201.696 164.962L184.08 83.8175C183.733 82.211 184 80.5238 184.821 79.126C185.642 77.7282 186.951 76.7339 188.461 76.3612L496.059 0.839526C497.57 0.470667 499.156 0.754044 500.471 1.62749C501.785 2.50093 502.72 3.89312 503.07 5.49869L520.686 86.6434C521.033 88.2498 520.766 89.937 519.945 91.3348C519.124 92.7325 517.815 93.7268 516.305 94.0995ZM188.987 78.7849C188.081 79.0085 187.296 79.6051 186.803 80.4439C186.31 81.2827 186.15 82.2951 186.358 83.2591L203.974 164.404C204.184 165.367 204.745 166.203 205.534 166.727C206.323 167.251 207.275 167.421 208.181 167.2L515.779 91.6779C516.685 91.4545 517.471 90.8579 517.964 90.0191C518.457 89.1802 518.617 88.1677 518.408 87.2037L500.792 6.05796C500.582 5.09433 500.021 4.25868 499.233 3.7345C498.444 3.21031 497.492 3.04041 496.585 3.26211L188.987 78.7849Z" fill="#E6E6E6"/>
<path d="M295.721 78.534C295.213 78.6576 294.732 78.8865 294.307 79.2075C293.882 79.5286 293.521 79.9355 293.244 80.4051C292.967 80.8747 292.779 81.3978 292.692 81.9444C292.605 82.4911 292.621 83.0506 292.737 83.591C292.853 84.1315 293.069 84.6422 293.371 85.0941C293.673 85.546 294.056 85.9302 294.497 86.2247C294.939 86.5193 295.431 86.7184 295.945 86.8107C296.459 86.903 296.985 86.8867 297.493 86.7627L297.507 86.7594L479.819 41.9979C480.843 41.7447 481.731 41.0695 482.288 40.1206C482.844 39.1718 483.024 38.0268 482.787 36.9372C482.551 35.8475 481.917 34.9023 481.026 34.3089C480.135 33.7156 479.058 33.5226 478.033 33.7725L295.721 78.534Z" fill="#E6E6E6"/>
<path d="M301.078 103.211C300.57 103.335 300.09 103.564 299.665 103.885C299.24 104.206 298.878 104.613 298.601 105.082C298.324 105.552 298.137 106.075 298.05 106.622C297.963 107.168 297.978 107.728 298.094 108.268C298.211 108.809 298.426 109.32 298.728 109.771C299.03 110.223 299.413 110.608 299.855 110.902C300.296 111.197 300.788 111.396 301.302 111.488C301.816 111.58 302.342 111.564 302.851 111.44L302.864 111.437L381.314 92.1758C382.339 91.9255 383.23 91.2523 383.789 90.3041C384.348 89.3559 384.53 88.2103 384.295 87.1194C384.06 86.0284 383.427 85.0814 382.536 84.4865C381.644 83.8916 380.567 83.6976 379.541 83.9471L379.528 83.9503L301.078 103.211Z" fill="#E6E6E6"/>
<path d="M245.881 133.228C259.033 133.228 269.695 121.889 269.695 107.902C269.695 93.9152 259.033 82.5767 245.881 82.5767C232.729 82.5767 222.067 93.9152 222.067 107.902C222.067 121.889 232.729 133.228 245.881 133.228Z" fill="#00ADB5"/>
<path d="M245.211 122.512C244.431 122.704 243.614 122.622 242.883 122.278L242.837 122.256L233.255 117.63C232.81 117.416 232.409 117.11 232.075 116.731C231.742 116.352 231.481 115.906 231.31 115.42C231.138 114.934 231.058 114.416 231.075 113.897C231.091 113.378 231.204 112.867 231.406 112.394C231.608 111.922 231.896 111.496 232.253 111.141C232.61 110.787 233.029 110.511 233.487 110.329C233.944 110.147 234.431 110.063 234.919 110.081C235.407 110.099 235.887 110.22 236.332 110.435L242.541 113.441L251.251 93.0867C251.659 92.1338 252.407 91.3921 253.329 91.0249C254.251 90.6577 255.272 90.6951 256.168 91.1286L256.116 91.2616L256.171 91.128C257.067 91.5628 257.763 92.3577 258.108 93.3383C258.454 94.3188 258.419 95.4048 258.012 96.3581L247.767 120.303C247.53 120.854 247.176 121.34 246.733 121.723C246.29 122.106 245.771 122.375 245.214 122.51L245.211 122.512Z" fill="white"/>
</svg>
