<svg width="600" height="537" viewBox="0 0 600 537" fill="none" xmlns="http://www.w3.org/2000/svg">
<path d="M76.0459 409.841L0.302164 154.046C-0.259379 152.15 -0.032251 150.111 0.933548 148.38C1.89935 146.648 3.52471 145.365 5.4521 144.812L506.887 1.05941C508.814 0.508735 510.885 0.732975 512.644 1.68293C514.404 2.63289 515.708 4.23094 516.272 6.1263L583.375 232.742L581.298 233.338L514.195 6.72168C513.792 5.36841 512.86 4.22759 511.604 3.54915C510.347 2.87071 508.868 2.70997 507.492 3.10215L6.05705 146.855C4.68034 147.25 3.51937 148.166 2.82951 149.403C2.13966 150.64 1.97742 152.096 2.37851 153.451L78.1223 409.246L76.0459 409.841Z" fill="#3F3D56"/>
<path d="M134.262 273.47C131.696 273.47 129.187 272.721 127.053 271.318C124.919 269.915 123.256 267.921 122.274 265.588C121.292 263.255 121.035 260.688 121.535 258.211C122.036 255.734 123.272 253.459 125.087 251.674C126.901 249.888 129.213 248.672 131.73 248.179C134.248 247.687 136.857 247.94 139.228 248.906C141.599 249.872 143.625 251.509 145.051 253.608C146.477 255.708 147.238 258.177 147.238 260.702C147.234 264.087 145.866 267.332 143.433 269.726C141 272.119 137.702 273.466 134.262 273.47ZM134.262 250.062C132.123 250.062 130.033 250.686 128.254 251.855C126.476 253.024 125.09 254.686 124.272 256.63C123.453 258.574 123.239 260.714 123.656 262.778C124.074 264.842 125.104 266.737 126.616 268.225C128.128 269.713 130.055 270.727 132.152 271.137C134.25 271.548 136.424 271.337 138.4 270.532C140.376 269.726 142.065 268.363 143.253 266.613C144.441 264.863 145.075 262.806 145.075 260.702C145.072 257.881 143.932 255.177 141.905 253.182C139.877 251.187 137.129 250.065 134.262 250.062Z" fill="#00ADB5"/>
<path d="M114.093 260.702C114.093 258.267 114.865 255.892 116.302 253.909C117.739 251.926 119.769 250.433 122.109 249.638C120.317 249.03 118.404 248.852 116.528 249.119C114.652 249.386 112.868 250.09 111.325 251.172C109.782 252.255 108.524 253.684 107.656 255.342C106.788 257 106.335 258.838 106.335 260.702C106.335 262.567 106.788 264.405 107.656 266.063C108.524 267.72 109.782 269.15 111.325 270.233C112.868 271.315 114.652 272.019 116.528 272.286C118.404 272.552 120.317 272.374 122.109 271.766C119.769 270.972 117.739 269.479 116.302 267.496C114.865 265.513 114.093 263.138 114.093 260.702Z" fill="#00ADB5"/>
<path d="M505.678 2.62793L7.33351 145.899C5.41927 146.451 3.79776 147.701 2.82477 149.373C1.85177 151.045 1.60677 153.004 2.14344 154.819L85.1784 434.447C85.7193 436.261 86.9975 437.781 88.7325 438.675C90.4675 439.569 92.5177 439.763 94.4331 439.214L592.778 295.943C594.692 295.391 596.313 294.141 597.286 292.469C598.259 290.797 598.504 288.838 597.968 287.023L514.933 7.39554C514.392 5.58169 513.113 4.06109 511.378 3.16731C509.643 2.27353 507.593 2.07955 505.678 2.62793Z" fill="white"/>
<path d="M581.568 231.638H81.9147C79.9949 231.64 78.1542 232.391 76.7967 233.727C75.4391 235.063 74.6755 236.874 74.6734 238.763V529.875C74.6754 531.764 75.439 533.575 76.7966 534.911C78.1541 536.247 79.9948 536.998 81.9147 537H581.568C583.488 536.998 585.328 536.247 586.686 534.911C588.043 533.575 588.807 531.764 588.809 529.875V238.763C588.807 236.874 588.043 235.063 586.686 233.727C585.328 232.391 583.487 231.64 581.568 231.638Z" fill="white"/>
<path d="M581.568 231.638H81.9147C79.9949 231.64 78.1542 232.391 76.7967 233.727C75.4391 235.063 74.6755 236.874 74.6734 238.763V529.875C74.6754 531.764 75.439 533.575 76.7966 534.911C78.1541 536.247 79.9948 536.998 81.9147 537H581.568C583.488 536.998 585.328 536.247 586.686 534.911C588.043 533.575 588.807 531.764 588.809 529.875V238.763C588.807 236.874 588.043 235.063 586.686 233.727C585.328 232.391 583.488 231.64 581.568 231.638ZM586.74 529.875C586.74 531.225 586.195 532.519 585.225 533.473C584.255 534.427 582.939 534.964 581.568 534.964H81.9147C80.5431 534.964 79.2278 534.427 78.2579 533.473C77.288 532.519 76.7428 531.225 76.7423 529.875V238.763C76.7429 237.413 77.2881 236.119 78.2579 235.165C79.2278 234.21 80.5431 233.674 81.9147 233.673H581.568C582.939 233.674 584.255 234.21 585.224 235.165C586.194 236.119 586.74 237.413 586.74 238.763V529.875Z" fill="#3F3D56"/>
<path d="M130.531 271.339C128.076 271.339 125.676 270.623 123.635 269.281C121.593 267.938 120.002 266.031 119.063 263.799C118.123 261.567 117.877 259.111 118.356 256.742C118.835 254.372 120.017 252.196 121.754 250.488C123.49 248.779 125.702 247.616 128.11 247.145C130.518 246.674 133.014 246.915 135.282 247.84C137.55 248.764 139.489 250.33 140.853 252.339C142.217 254.347 142.945 256.709 142.945 259.125C142.945 262.364 141.637 265.471 139.309 267.762C136.981 270.052 133.824 271.339 130.531 271.339ZM130.531 248.946C128.485 248.946 126.485 249.543 124.784 250.661C123.083 251.78 121.757 253.369 120.974 255.229C120.191 257.089 119.986 259.136 120.385 261.11C120.785 263.085 121.77 264.899 123.217 266.322C124.663 267.746 126.507 268.715 128.513 269.108C130.52 269.501 132.6 269.299 134.49 268.529C136.38 267.758 137.996 266.454 139.133 264.78C140.269 263.106 140.876 261.138 140.876 259.125C140.876 257.788 140.609 256.464 140.089 255.229C139.569 253.994 138.807 252.872 137.846 251.927C136.886 250.982 135.745 250.232 134.49 249.721C133.235 249.209 131.89 248.946 130.531 248.946Z" fill="#00ADB5"/>
<path d="M111.236 259.123C111.237 256.793 111.976 254.522 113.35 252.624C114.725 250.727 116.666 249.299 118.905 248.539C117.191 247.957 115.36 247.787 113.566 248.042C111.771 248.297 110.065 248.971 108.589 250.006C107.112 251.042 105.909 252.409 105.078 253.995C104.248 255.581 103.814 257.339 103.814 259.123C103.814 260.907 104.248 262.666 105.078 264.251C105.909 265.837 107.112 267.205 108.589 268.241C110.065 269.276 111.771 269.95 113.566 270.205C115.36 270.46 117.191 270.29 118.905 269.708C116.666 268.948 114.725 267.52 113.35 265.622C111.976 263.725 111.237 261.453 111.236 259.123Z" fill="#00ADB5"/>
<path d="M180.852 403.436C178.384 403.434 176.018 402.468 174.272 400.75C172.527 399.033 171.545 396.704 171.542 394.276V366.793C171.545 364.365 172.527 362.038 174.273 360.322C176.019 358.607 178.385 357.643 180.852 357.643C183.32 357.643 185.686 358.607 187.432 360.322C189.177 362.038 190.16 364.365 190.163 366.793V394.276C190.16 396.704 189.178 399.033 187.433 400.75C185.687 402.468 183.321 403.434 180.852 403.436Z" fill="#00ADB5"/>
<path d="M205.68 403.436C203.211 403.434 200.845 402.468 199.1 400.75C197.354 399.033 196.372 396.704 196.37 394.276V366.793C196.373 364.365 197.355 362.038 199.1 360.322C200.846 358.607 203.213 357.643 205.68 357.643C208.147 357.643 210.514 358.607 212.259 360.322C214.005 362.038 214.987 364.365 214.99 366.793V394.276C214.987 396.704 214.005 399.033 212.26 400.75C210.515 402.468 208.148 403.434 205.68 403.436Z" fill="#00ADB5"/>
<path d="M230.507 403.436C228.039 403.434 225.672 402.468 223.927 400.75C222.182 399.033 221.2 396.704 221.197 394.276V366.793C221.2 364.365 222.182 362.038 223.928 360.322C225.673 358.607 228.04 357.643 230.507 357.643C232.975 357.643 235.341 358.607 237.087 360.322C238.832 362.038 239.815 364.365 239.817 366.793V394.276C239.815 396.704 238.833 399.033 237.087 400.75C235.342 402.468 232.976 403.434 230.507 403.436Z" fill="#00ADB5"/>
<path d="M268.783 403.436C266.315 403.434 263.948 402.468 262.203 400.75C260.457 399.033 259.475 396.704 259.473 394.276V366.793C259.475 364.365 260.458 362.038 262.203 360.322C263.949 358.607 266.316 357.643 268.783 357.643C271.25 357.643 273.617 358.607 275.362 360.322C277.108 362.038 278.09 364.365 278.093 366.793V394.276C278.09 396.704 277.109 399.033 275.363 400.75C273.618 402.468 271.251 403.434 268.783 403.436Z" fill="#00ADB5"/>
<path d="M293.61 403.436C291.142 403.434 288.776 402.468 287.03 400.75C285.285 399.033 284.303 396.704 284.3 394.276V366.793C284.303 364.365 285.285 362.038 287.031 360.322C288.777 358.607 291.143 357.643 293.61 357.643C296.078 357.643 298.444 358.607 300.19 360.322C301.936 362.038 302.918 364.365 302.921 366.793V394.276C302.918 396.704 301.936 399.033 300.191 400.75C298.445 402.468 296.079 403.434 293.61 403.436Z" fill="#00ADB5"/>
<path d="M318.438 403.436C315.969 403.434 313.603 402.468 311.857 400.75C310.112 399.033 309.13 396.704 309.127 394.276V366.793C309.13 364.365 310.113 362.038 311.858 360.322C313.604 358.607 315.97 357.643 318.438 357.643C320.905 357.643 323.271 358.607 325.017 360.322C326.763 362.038 327.745 364.365 327.748 366.793V394.276C327.745 396.704 326.763 399.033 325.018 400.75C323.272 402.468 320.906 403.434 318.438 403.436Z" fill="#00ADB5"/>
<path d="M356.713 403.436C354.245 403.434 351.878 402.468 350.133 400.75C348.388 399.033 347.406 396.704 347.403 394.276V366.793C347.406 364.365 348.388 362.038 350.134 360.322C351.88 358.607 354.246 357.643 356.713 357.643C359.181 357.643 361.547 358.607 363.293 360.322C365.038 362.038 366.021 364.365 366.024 366.793V394.276C366.021 396.704 365.039 399.033 363.294 400.75C361.548 402.468 359.182 403.434 356.713 403.436Z" fill="#00ADB5"/>
<path d="M381.541 403.436C379.072 403.434 376.706 402.468 374.961 400.75C373.215 399.033 372.233 396.704 372.231 394.276V366.793C372.233 364.365 373.216 362.038 374.961 360.322C376.707 358.607 379.073 357.643 381.541 357.643C384.008 357.643 386.375 358.607 388.12 360.322C389.866 362.038 390.848 364.365 390.851 366.793V394.276C390.848 396.704 389.866 399.033 388.121 400.75C386.376 402.468 384.009 403.434 381.541 403.436Z" fill="#00ADB5"/>
<path d="M406.368 403.436C403.9 403.434 401.533 402.468 399.788 400.75C398.043 399.033 397.061 396.704 397.058 394.276V366.793C397.061 364.365 398.043 362.038 399.789 360.322C401.535 358.607 403.901 357.643 406.368 357.643C408.836 357.643 411.202 358.607 412.948 360.322C414.693 362.038 415.676 364.365 415.679 366.793V394.276C415.676 396.704 414.694 399.033 412.949 400.75C411.203 402.468 408.837 403.434 406.368 403.436Z" fill="#00ADB5"/>
<path d="M444.644 403.436C442.175 403.434 439.809 402.468 438.064 400.75C436.318 399.033 435.336 396.704 435.333 394.276V366.793C435.336 364.365 436.319 362.038 438.064 360.322C439.81 358.607 442.176 357.643 444.644 357.643C447.111 357.643 449.478 358.607 451.223 360.322C452.969 362.038 453.951 364.365 453.954 366.793V394.276C453.951 396.704 452.969 399.033 451.224 400.75C449.479 402.468 447.112 403.434 444.644 403.436Z" fill="#00ADB5"/>
<path d="M469.472 403.436C467.003 403.434 464.637 402.468 462.891 400.75C461.146 399.033 460.164 396.704 460.161 394.276V366.793C460.164 364.365 461.146 362.038 462.892 360.322C464.638 358.607 467.004 357.643 469.472 357.643C471.939 357.643 474.305 358.607 476.051 360.322C477.797 362.038 478.779 364.365 478.782 366.793V394.276C478.779 396.704 477.797 399.033 476.052 400.75C474.306 402.468 471.94 403.434 469.472 403.436Z" fill="#00ADB5"/>
<path d="M494.299 403.436C491.83 403.434 489.464 402.468 487.718 400.75C485.973 399.033 484.991 396.704 484.988 394.276V366.793C484.991 364.365 485.974 362.038 487.719 360.322C489.465 358.607 491.831 357.643 494.299 357.643C496.766 357.643 499.132 358.607 500.878 360.322C502.624 362.038 503.606 364.365 503.609 366.793V394.276C503.606 396.704 502.624 399.033 500.879 400.75C499.134 402.468 496.767 403.434 494.299 403.436Z" fill="#00ADB5"/>
<path d="M243.974 505.396H110.071C109.249 505.398 108.434 505.239 107.674 504.93C106.914 504.622 106.223 504.168 105.641 503.597C105.06 503.025 104.598 502.346 104.283 501.599C103.968 500.851 103.806 500.05 103.806 499.241C103.806 498.432 103.968 497.631 104.283 496.883C104.598 496.136 105.06 495.457 105.641 494.885C106.223 494.313 106.914 493.86 107.674 493.551C108.434 493.243 109.249 493.084 110.071 493.085H243.974C245.632 493.088 247.22 493.737 248.392 494.892C249.563 496.046 250.221 497.61 250.221 499.241C250.221 500.872 249.563 502.436 248.392 503.59C247.22 504.744 245.632 505.394 243.974 505.396Z" fill="#E6E6E6"/>
<path d="M201.043 478.932H153.002C151.343 478.932 149.752 478.283 148.578 477.129C147.405 475.974 146.746 474.409 146.746 472.776C146.746 471.144 147.405 469.578 148.578 468.423C149.752 467.269 151.343 466.621 153.002 466.621H201.043C202.702 466.621 204.294 467.269 205.467 468.423C206.64 469.578 207.299 471.144 207.299 472.776C207.299 474.409 206.64 475.974 205.467 477.129C204.294 478.283 202.702 478.932 201.043 478.932Z" fill="#E6E6E6"/>
<path d="M587 292.185H76V294.136H587V292.185Z" fill="#3F3D56"/>
<path d="M528.543 51.3694L14.6494 198.693L28.261 244.661L542.154 97.3372L528.543 51.3694Z" fill="#3F3D56"/>
<path d="M74.8751 154.837C74.7445 154.396 74.5892 153.962 74.41 153.539C73.1908 150.627 70.9212 148.262 68.0371 146.897C65.1531 145.532 61.8582 145.264 58.7854 146.144C55.7127 147.024 53.079 148.99 51.3903 151.665C49.7017 154.34 49.0772 157.535 49.6369 160.635C49.7156 161.088 49.8203 161.535 49.9505 161.976C50.7402 164.628 52.3817 166.957 54.6292 168.614C56.8768 170.271 59.6095 171.168 62.4181 171.169C63.6443 171.171 64.8645 170.999 66.0407 170.658C69.3419 169.709 72.1259 167.51 73.782 164.544C75.4381 161.578 75.8312 158.087 74.8751 154.837ZM65.4351 168.615C62.682 169.401 59.7244 169.081 57.2108 167.725C54.6973 166.369 52.833 164.087 52.0266 161.38C51.9 160.939 51.7989 160.492 51.7236 160.039C51.318 157.485 51.8719 154.873 53.2817 152.691C54.6916 150.509 56.8608 148.907 59.3838 148.185C61.9068 147.462 64.6109 147.669 66.9903 148.766C69.3697 149.863 71.2616 151.775 72.3122 154.145C72.508 154.561 72.6708 154.992 72.799 155.432C73.597 158.141 73.2697 161.051 71.889 163.523C70.5083 165.995 68.1871 167.826 65.4351 168.615Z" fill="#00ADB5"/>
<path d="M43.0488 163.955C42.3568 161.617 42.4233 159.124 43.2389 156.825C44.0546 154.525 45.5789 152.533 47.5994 151.127C45.7064 151.036 43.8188 151.392 42.0937 152.164C40.3687 152.936 38.8562 154.103 37.6823 155.567C36.5084 157.031 35.707 158.75 35.3449 160.58C34.9828 162.411 35.0705 164.3 35.6006 166.09C36.1308 167.881 37.088 169.521 38.3927 170.873C39.6973 172.226 41.3116 173.252 43.101 173.867C44.8904 174.481 46.8031 174.666 48.6798 174.406C50.5565 174.146 52.3429 173.448 53.8901 172.371C51.4178 172.252 49.0448 171.378 47.1015 169.869C45.1583 168.361 43.7416 166.293 43.0488 163.955Z" fill="#00ADB5"/>
<path d="M473.891 209.376C472.37 209.374 470.89 208.888 469.673 207.99C468.456 207.091 467.567 205.829 467.14 204.393L454.436 161.49C453.917 159.729 454.129 157.837 455.025 156.23C455.921 154.622 457.429 153.43 459.218 152.915L502.821 140.415C504.611 139.904 506.533 140.113 508.167 140.995C509.801 141.877 511.012 143.361 511.535 145.121L524.239 188.024C524.758 189.785 524.546 191.677 523.65 193.284C522.753 194.892 521.246 196.084 519.457 196.598L475.854 209.099C475.216 209.282 474.556 209.375 473.891 209.376Z" fill="#00ADB5"/>
<path d="M380.036 213.857C379.806 213.043 379.415 212.281 378.885 211.616C378.356 210.95 377.698 210.394 376.95 209.979C376.202 209.564 375.378 209.298 374.525 209.197C373.672 209.095 372.807 209.16 371.98 209.388L300.19 229.146L292.459 231.274H341.011L348.742 229.146L375.505 221.784C377.174 221.322 378.588 220.229 379.437 218.742C380.287 217.256 380.502 215.499 380.036 213.857Z" fill="#CCCCCC"/>
<path d="M329.246 199.099C328.778 197.457 327.667 196.065 326.156 195.229C324.645 194.393 322.859 194.182 321.19 194.641L213.468 224.284C211.962 224.703 210.659 225.638 209.792 226.92C208.926 228.202 208.553 229.746 208.742 231.274H236.63L244.372 229.146L324.715 207.037C326.385 206.574 327.8 205.478 328.649 203.99C329.499 202.502 329.713 200.743 329.246 199.099Z" fill="#CCCCCC"/>
</svg>
