<svg width="740" height="485" viewBox="0 0 740 485" fill="none" xmlns="http://www.w3.org/2000/svg">
<g clip-path="url(#clip0_115_326)">
<path d="M264.97 420.248C267.647 398.727 280.987 377.522 301.516 370.518C293.42 392.67 293.422 416.971 301.521 439.121C304.675 447.653 309.072 456.813 306.105 465.411C304.259 470.761 299.743 474.855 294.694 477.414C289.645 479.973 284.042 481.193 278.51 482.389L277.421 483.289C268.637 463.459 262.293 441.77 264.97 420.248Z" fill="#F0F0F0"/>
<path d="M301.72 370.925C289.765 384.318 282.334 401.136 280.484 418.992C280.017 422.828 280.159 426.715 280.902 430.508C281.746 434.179 283.558 437.557 286.15 440.292C288.515 442.89 291.235 445.274 292.927 448.401C293.77 450.015 294.261 451.789 294.37 453.606C294.479 455.423 294.202 457.243 293.558 458.945C292.064 463.23 289.12 466.722 286.121 470.037C282.792 473.718 279.276 477.489 277.86 482.368C277.689 482.96 276.781 482.659 276.953 482.069C279.415 473.579 287.658 468.756 291.589 461.11C293.423 457.541 294.193 453.399 292.473 449.633C290.97 446.339 288.167 443.878 285.749 441.268C283.182 438.638 281.298 435.419 280.262 431.893C279.327 428.15 279.037 424.276 279.402 420.435C280.087 411.777 282.13 403.279 285.455 395.255C289.199 386.076 294.486 377.605 301.087 370.208C301.496 369.75 302.126 370.47 301.72 370.925Z" fill="white"/>
<path d="M280.741 413.207C277.787 412.49 275.184 410.747 273.397 408.288C271.61 405.829 270.755 402.815 270.986 399.784C271.034 399.171 271.99 399.218 271.941 399.832C271.721 402.654 272.517 405.461 274.186 407.747C275.855 410.034 278.286 411.648 281.041 412.3C281.639 412.442 281.336 413.349 280.741 413.207Z" fill="white"/>
<path d="M284.777 439.132C290.112 435.947 294.051 430.868 295.808 424.908C295.981 424.318 296.889 424.618 296.716 425.208C294.876 431.407 290.766 436.684 285.207 439.986C284.677 440.301 284.25 439.445 284.777 439.132Z" fill="white"/>
<path d="M290.086 386.981C291.171 387.497 292.367 387.735 293.567 387.674C294.767 387.613 295.933 387.255 296.961 386.632C297.486 386.311 297.913 387.167 297.391 387.486C296.252 388.169 294.964 388.563 293.638 388.633C292.313 388.703 290.99 388.448 289.786 387.889C289.668 387.846 289.571 387.759 289.515 387.647C289.458 387.535 289.446 387.406 289.482 387.285C289.522 387.165 289.608 387.066 289.721 387.009C289.834 386.952 289.965 386.942 290.086 386.981Z" fill="white"/>
<path d="M364.091 408.958C363.768 409.168 363.445 409.378 363.122 409.596C358.799 412.438 354.713 415.627 350.907 419.131C350.608 419.397 350.309 419.671 350.019 419.946C340.937 428.485 333.52 438.636 328.145 449.883C326.01 454.36 324.219 458.993 322.788 463.742C320.811 470.301 319.189 477.57 315.276 482.934C314.874 483.498 314.437 484.037 313.968 484.548H278.604C278.523 484.507 278.443 484.475 278.362 484.435L276.95 484.499C277.007 484.249 277.071 483.991 277.128 483.741C277.16 483.596 277.2 483.451 277.232 483.305C277.256 483.209 277.281 483.112 277.297 483.023C277.305 482.991 277.313 482.958 277.321 482.934C277.337 482.845 277.362 482.765 277.378 482.684C277.733 481.24 278.098 479.796 278.475 478.352C278.475 478.344 278.475 478.344 278.483 478.336C281.38 467.34 285.22 456.49 290.586 446.567C290.747 446.269 290.908 445.962 291.086 445.664C293.529 441.205 296.333 436.953 299.469 432.95C301.194 430.764 303.028 428.666 304.964 426.666C309.978 421.506 315.772 417.166 322.134 413.807C334.818 407.111 349.502 404.546 363.058 408.636C363.405 408.741 363.744 408.845 364.091 408.958Z" fill="#F0F0F0"/>
<path d="M364.011 409.407C346.401 412.904 330.34 421.86 318.111 435.003C315.428 437.785 313.2 440.973 311.51 444.45C309.973 447.889 309.386 451.677 309.808 455.42C310.132 458.918 310.869 462.459 310.336 465.975C310.037 467.771 309.362 469.483 308.354 470.999C307.347 472.516 306.03 473.802 304.491 474.774C300.718 477.296 296.264 478.311 291.873 479.153C286.999 480.088 281.921 480.982 277.852 484.026C277.359 484.395 276.816 483.609 277.308 483.241C284.386 477.944 293.872 479.055 301.615 475.316C305.228 473.571 308.337 470.727 309.232 466.685C310.015 463.15 309.259 459.498 308.9 455.959C308.434 452.313 308.868 448.609 310.165 445.17C311.672 441.619 313.773 438.351 316.378 435.504C322.139 429.003 328.886 423.448 336.373 419.043C344.89 413.967 354.213 410.386 363.938 408.454C364.539 408.335 364.609 409.289 364.011 409.407Z" fill="white"/>
<path d="M321.8 430.539C319.873 428.188 318.844 425.229 318.898 422.19C318.952 419.151 320.084 416.23 322.093 413.949C322.501 413.489 323.236 414.101 322.827 414.562C320.952 416.683 319.898 419.404 319.853 422.234C319.809 425.064 320.778 427.816 322.585 429.995C322.978 430.469 322.189 431.01 321.8 430.539Z" fill="white"/>
<path d="M309.41 453.668C315.589 454.337 321.792 452.652 326.783 448.951C327.277 448.584 327.821 449.37 327.328 449.737C322.126 453.579 315.667 455.318 309.24 454.609C308.627 454.541 308.801 453.6 309.41 453.668Z" fill="white"/>
<path d="M345.053 415.224C345.609 416.289 346.421 417.199 347.416 417.873C348.411 418.547 349.557 418.963 350.752 419.084C351.366 419.144 351.191 420.084 350.582 420.024C349.262 419.884 347.996 419.423 346.895 418.681C345.795 417.939 344.892 416.939 344.267 415.768C344.199 415.663 344.174 415.536 344.196 415.412C344.219 415.288 344.287 415.178 344.388 415.103C344.493 415.032 344.621 415.004 344.746 415.027C344.87 415.05 344.981 415.12 345.053 415.224Z" fill="white"/>
<path d="M384.175 5.34814C382.678 5.34982 381.242 5.94532 380.184 7.00397C379.125 8.06263 378.529 9.498 378.527 10.9952V249.783C378.529 251.281 379.125 252.716 380.184 253.774C381.243 254.833 382.678 255.428 384.175 255.43H734.352C735.849 255.428 737.285 254.833 738.344 253.774C739.403 252.716 739.998 251.28 740 249.783V10.9952C739.998 9.49802 739.403 8.06269 738.344 7.00405C737.285 5.9454 735.849 5.34989 734.352 5.34814H384.175Z" fill="#E6E6E6"/>
<path d="M392.244 13.4153C390.747 13.417 389.311 14.0125 388.252 15.0711C387.193 16.1298 386.598 17.5651 386.596 19.0623V241.716C386.598 243.213 387.193 244.648 388.252 245.707C389.311 246.766 390.747 247.361 392.244 247.363H726.283C727.781 247.361 729.216 246.766 730.275 245.707C731.334 244.648 731.93 243.213 731.931 241.716V19.0623C731.93 17.5652 731.334 16.1298 730.275 15.0712C729.216 14.0125 727.781 13.417 726.283 13.4153H392.244Z" fill="white"/>
<path opacity="0.1" d="M700.453 62.1039C692.771 59.1053 684.488 66.6255 682.689 74.6716C680.889 82.7177 683.192 91.039 683.699 99.2683C684.206 107.497 682.049 117.053 674.706 120.805C666.262 125.119 656.357 119.51 646.913 118.656C642.199 118.282 637.466 119.109 633.159 121.06C628.851 123.011 625.108 126.023 622.281 129.813C614.492 140.496 614.888 156.009 605.672 165.488C597.664 173.724 584.614 174.797 573.411 172.25C562.209 169.703 551.912 164.17 540.896 160.908C529.881 157.646 517.13 156.965 507.69 163.512C497.836 170.347 493.451 183.744 482.632 188.92C474.983 192.58 465.928 191.184 457.742 188.968C449.556 186.751 441.302 183.761 432.852 184.473C424.401 185.184 415.591 191.014 414.921 199.466L704.956 198.657C706.273 160.381 707.591 122.106 708.909 83.8302C709.195 75.5154 708.204 65.1297 700.453 62.1039Z" fill="#00ADB5"/>
<path d="M266.385 267.481C265.88 266.15 265.673 264.725 265.779 263.306C265.884 261.886 266.299 260.508 266.995 259.266C267.691 258.025 268.651 256.951 269.807 256.121C270.963 255.29 272.287 254.723 273.686 254.46L278.781 220.244L292.169 232.242L285.278 262.895C285.565 265.274 284.97 267.675 283.604 269.644C282.238 271.613 280.198 273.013 277.869 273.578C275.54 274.143 273.085 273.835 270.968 272.711C268.852 271.587 267.221 269.726 266.385 267.481Z" fill="#FFB6B6"/>
<path d="M172.957 272.675C173.826 271.548 174.438 270.244 174.749 268.855C175.06 267.467 175.063 266.027 174.757 264.637C174.452 263.247 173.845 261.941 172.979 260.811C172.114 259.681 171.012 258.754 169.75 258.096L174.804 223.874L158.509 231.472L156.208 262.805C155.243 264.998 155.116 267.469 155.851 269.75C156.587 272.03 158.133 273.962 160.198 275.178C162.262 276.395 164.702 276.812 167.053 276.35C169.405 275.889 171.505 274.581 172.957 272.675Z" fill="#FFB6B6"/>
<path d="M244.581 469.441L259.699 469.44L266.891 411.136L244.578 411.138L244.581 469.441Z" fill="#FFB6B6"/>
<path d="M240.724 464.506L270.498 464.504H270.499C275.531 464.505 280.357 466.503 283.915 470.061C287.474 473.619 289.473 478.444 289.473 483.475V484.091L240.725 484.093L240.724 464.506Z" fill="#2F2E41"/>
<path d="M163.895 469.441L179.013 469.44L186.205 411.136L163.892 411.138L163.895 469.441Z" fill="#FFB6B6"/>
<path d="M160.038 464.506L189.812 464.504H189.813C194.845 464.505 199.671 466.503 203.229 470.061C206.788 473.619 208.787 478.444 208.787 483.475V484.091L160.039 484.093L160.038 464.506Z" fill="#2F2E41"/>
<path d="M235.043 71.4623C250.126 71.4623 262.353 59.2372 262.353 44.1567C262.353 29.0762 250.126 16.8511 235.043 16.8511C219.96 16.8511 207.732 29.0762 207.732 44.1567C207.732 59.2372 219.96 71.4623 235.043 71.4623Z" fill="#FFB6B6"/>
<path d="M170.394 241.015C170.394 241.015 170.796 363.203 168.846 365.153C166.895 367.104 159.97 440.178 159.97 440.178H184.176C185.79 440.178 226.966 280.998 226.966 280.998C226.966 280.998 244.523 366.815 241.596 371.691C238.67 376.567 240.951 440.488 242.572 445.807C242.572 445.807 262.911 452.315 264.862 447.439C266.812 442.563 269.703 376.447 269.703 376.447L275.351 266.734L275.474 238.089L170.394 241.015Z" fill="#2F2E41"/>
<path d="M282.562 100.586H293.429C294.228 100.585 295.002 100.857 295.626 101.355C296.25 101.854 296.685 102.549 296.861 103.328C298.538 110.752 302.859 131.797 302.07 148.371C301.094 168.85 299.143 201.031 299.143 203.957C299.143 206.883 289.39 251.742 289.39 251.742C289.39 251.742 282.684 240.723 275.308 242.819L276.71 202.982L278.661 186.403L275.735 157.147L282.562 100.586Z" fill="#E4E4E4"/>
<path d="M213.311 82.7307C213.311 82.7307 178.685 94.2468 174.784 103.999C170.882 113.751 189.824 184.449 189.824 184.449C189.824 184.449 182.562 216.717 172.833 247.353C168.405 261.295 210.659 249.359 230.167 242.532C242.255 238.341 264.612 244.778 277.198 242.477C277.198 242.477 279.148 216.147 277.198 211.271C275.247 206.395 270.37 209.321 273.296 202.494C276.222 195.668 275.247 194.693 274.272 191.767C273.296 188.841 276.222 184.94 276.222 181.04C276.222 177.139 275.247 168.362 275.247 168.362C275.247 168.362 301.582 106.924 295.73 101.073C289.877 95.222 260.088 83.9478 260.088 83.9478C260.088 83.9478 260.827 84.4159 213.311 82.7307Z" fill="#E4E4E4"/>
<path d="M181.123 100.586L177.659 102.317C176.311 102.991 175.137 103.968 174.229 105.172C173.321 106.375 172.704 107.772 172.426 109.254L158.69 182.503L155.764 251.742C155.764 251.742 172.345 246.866 177.222 251.742C177.222 251.742 172.345 237.114 175.271 232.238C178.197 227.362 178.197 220.535 178.197 220.535C178.197 220.535 176.246 220.535 181.123 215.659C186 210.783 186.976 208.833 186 207.858C185.025 206.883 184.049 198.106 184.049 197.131C184.049 196.155 193.803 130.817 193.803 130.817L181.123 100.586Z" fill="#E4E4E4"/>
<path d="M413.534 198.524C413.106 198.524 412.696 198.354 412.393 198.052C412.091 197.749 411.921 197.339 411.921 196.911C411.921 196.483 412.091 196.073 412.393 195.77C412.696 195.468 413.106 195.298 413.534 195.298C488.1 195.298 559.212 180.37 613.772 153.265C664.933 127.848 697.535 93.381 703.218 58.7016C703.251 58.4922 703.326 58.2915 703.437 58.111C703.549 57.9304 703.694 57.7736 703.866 57.6495C704.038 57.5253 704.233 57.4363 704.44 57.3875C704.646 57.3387 704.86 57.3311 705.07 57.3651C705.279 57.3991 705.48 57.474 705.66 57.5856C705.84 57.6971 705.997 57.8432 706.121 58.0154C706.245 58.1875 706.333 58.3824 706.382 58.5889C706.43 58.7953 706.438 59.0094 706.403 59.2186L706.403 59.2232C703.451 77.2376 693.869 94.9086 677.924 111.746C662.198 128.352 641.098 143.293 615.209 156.154C560.212 183.477 488.589 198.524 413.534 198.524Z" fill="#00ADB5"/>
<path d="M719.829 198.85H411.609V46.6001H413.223V197.237H719.829V198.85Z" fill="#E6E6E6"/>
<path d="M209.302 53.3554C208.053 50.2922 207.853 46.9023 208.731 43.7131C210.961 49.629 215.394 47.8232 217.652 45.0488C220.484 41.5697 219.669 33.535 224.141 33.1755C228.613 32.8159 233.084 33.6621 237.491 34.5044C236.761 33.2545 236.031 32.0046 235.301 30.7546C238.488 30.9524 241.676 31.1502 244.863 31.348C243.914 29.7867 242.965 28.2254 242.016 26.6642C246.349 28.1866 250.313 30.6049 253.649 33.7613C256.985 36.9178 259.619 40.7416 261.378 44.9837C263.031 42.308 264.061 39.2946 264.391 36.1669C264.722 33.0392 264.344 29.8772 263.286 26.9153C262.228 23.9534 260.517 21.2673 258.28 19.0563C256.043 16.8453 253.337 15.1658 250.362 14.1424C251.62 12.4929 252.877 10.8435 254.134 9.19409L228.54 6.66893C228.476 5.4355 228.714 4.20513 229.233 3.08435C229.752 1.96356 230.536 0.986145 231.518 0.236724C228.167 -0.519977 224.612 0.615146 221.764 2.53672C218.916 4.45832 216.651 7.10818 214.424 9.72392C211.052 13.6845 207.639 17.7071 205.432 22.4168C203.168 27.4306 202.331 32.9718 203.014 38.4305C203.697 43.8891 205.872 49.0536 209.302 53.3554ZM209.611 41.3394L209.612 41.3379L209.637 41.3334L209.611 41.3394Z" fill="#2F2E41"/>
<path d="M523.235 485H0.960743C0.706428 484.999 0.462786 484.898 0.283218 484.718C0.103651 484.538 0.00280762 484.294 0.00280762 484.039C0.00280762 483.785 0.103651 483.541 0.283218 483.361C0.462786 483.181 0.706428 483.08 0.960743 483.079H523.235C523.49 483.08 523.733 483.181 523.913 483.361C524.092 483.541 524.193 483.785 524.193 484.039C524.193 484.294 524.092 484.538 523.913 484.718C523.733 484.898 523.49 484.999 523.235 485Z" fill="#CACACA"/>
</g>
<defs>
<clipPath id="clip0_115_326">
<rect width="740" height="485" fill="white"/>
</clipPath>
</defs>
</svg>
