<svg width="100" height="100" viewBox="0 0 100 100" fill="none" xmlns="http://www.w3.org/2000/svg">
<rect width="100" height="100" rx="50" fill="#FAEAB1" fill-opacity="0.4"/>
<path d="M67.6591 45.7944C67.8326 45.3755 67.878 44.9146 67.7895 44.47C67.701 44.0253 67.4825 43.6169 67.1619 43.2965L55.7035 31.8381L52.4631 35.0786L60.0096 42.625H31.1666V47.2083H65.5416C65.9949 47.2085 66.4379 47.0742 66.8148 46.8225C67.1917 46.5708 67.4856 46.213 67.6591 45.7944ZM31.3408 53.2056C31.1673 53.6245 31.122 54.0854 31.2105 54.53C31.299 54.9747 31.5174 55.3831 31.8381 55.7035L43.2964 67.1619L46.5369 63.9215L38.9904 56.375H67.8333V51.7917H33.4583C33.005 51.7913 32.5618 51.9254 32.1849 52.1771C31.8079 52.4288 31.5141 52.7868 31.3408 53.2056Z" fill="#FAEAB1"/>
</svg>
