<svg width="100" height="100" viewBox="0 0 100 100" fill="none" xmlns="http://www.w3.org/2000/svg">
<rect width="100" height="100" rx="50" fill="#F55050" fill-opacity="0.4"/>
<path d="M33.4583 67.8335C33.4583 69.0491 33.9412 70.2149 34.8008 71.0744C35.6603 71.9339 36.8261 72.4168 38.0417 72.4168H60.9583C62.1739 72.4168 63.3397 71.9339 64.1992 71.0744C65.0588 70.2149 65.5417 69.0491 65.5417 67.8335V40.3335H70.125V35.7502H60.9583V31.1668C60.9583 29.9513 60.4754 28.7855 59.6159 27.9259C58.7564 27.0664 57.5906 26.5835 56.375 26.5835H42.625C41.4094 26.5835 40.2436 27.0664 39.3841 27.9259C38.5246 28.7855 38.0417 29.9513 38.0417 31.1668V35.7502H28.875V40.3335H33.4583V67.8335ZM42.625 31.1668H56.375V35.7502H42.625V31.1668ZM40.3333 40.3335H60.9583V67.8335H38.0417V40.3335H40.3333Z" fill="#F55050"/>
<path d="M42.625 44.9165H47.2083V63.2498H42.625V44.9165ZM51.7917 44.9165H56.375V63.2498H51.7917V44.9165Z" fill="#F55050"/>
</svg>
